<svg viewBox="0 0 1000 520" xmlns="http://www.w3.org/2000/svg">
  <!-- FASE 1: Ignorância -->
  <rect x="25" y="20" width="210" height="460" fill="#ffebee" stroke="#d32f2f" stroke-width="2"
    rx="8" />
  <text x="130" y="50" font-size="13" font-weight="bold" text-anchor="middle" fill="#b71c1c">FASE 1</text>
  <text x="130" y="68" font-size="12" font-weight="bold" text-anchor="middle" fill="#b71c1c">
    ❌ Ignorância
  </text>

  <rect x="40" y="90" width="180" height="35" fill="#ffcdd2" stroke="#c62828" stroke-width="1"
    rx="5" />
  <text x="130" y="112" font-size="10" text-anchor="middle" fill="#b71c1c">Criando BD sem entender</text>

  <text x="45" y="145" font-size="9" fill="#b71c1c">Dev:</text>
  <text x="45" y="160" font-size="9" fill="#b71c1c">"Vou fazer tabelas"</text>
  <text x="45" y="176" font-size="9" fill="#b71c1c">clientes, produtos,</text>
  <text x="45" y="192" font-size="9" fill="#b71c1c">pedidos, pagamentos</text>
  <text x="45" y="212" font-size="9" fill="#b71c1c">"Pronto em 2 semanas"</text>

  <rect x="40" y="235" width="180" height="75" fill="#ffcdd2" stroke="#c62828" stroke-width="1"
    rx="5" />
  <text x="130" y="253" font-size="9" font-weight="bold" text-anchor="middle" fill="#b71c1c">
    Resultado:</text>
  <text x="130" y="269" font-size="8" text-anchor="middle" fill="#b71c1c">Sistema quebra em</text>
  <text x="130" y="283" font-size="8" text-anchor="middle" fill="#b71c1c">produção. Regras de</text>
  <text x="130" y="297" font-size="8" text-anchor="middle" fill="#b71c1c">negócio não estão lá.</text>

  <text x="130" y="330" font-size="9" fill="#b71c1c" font-style="italic" font-weight="bold">⏱️
    Semana 1</text>

  <!-- FASE 2: Descoberta -->
  <rect x="260" y="20" width="210" height="460" fill="#fff3e0" stroke="#ff9800" stroke-width="2"
    rx="8" />
  <text x="365" y="50" font-size="13" font-weight="bold" text-anchor="middle" fill="#e65100">FASE 2</text>
  <text x="365" y="68" font-size="12" font-weight="bold" text-anchor="middle" fill="#e65100">
    🔍 Descoberta
  </text>

  <rect x="275" y="90" width="180" height="35" fill="#ffe0b2" stroke="#ff6f00" stroke-width="1"
    rx="5" />
  <text x="365" y="112" font-size="10" text-anchor="middle" fill="#e65100">Conversas com Expert</text>

  <text x="280" y="145" font-size="8" fill="#bf360c">Expert: "Por que</text>
  <text x="280" y="158" font-size="8" fill="#bf360c">devolveu depois de 90d?"</text>
  <text x="280" y="172" font-size="8" fill="#bf360c">Dev: "Não implementei"</text>

  <text x="280" y="191" font-size="8" fill="#bf360c">Expert: "Que é nota</text>
  <text x="280" y="204" font-size="8" fill="#bf360c">fiscal?"</text>
  <text x="280" y="218" font-size="8" fill="#bf360c">Dev: "Não sei o que é!"</text>

  <rect x="275" y="240" width="180" height="70" fill="#ffe0b2" stroke="#ff6f00" stroke-width="1"
    rx="5" />
  <text x="365" y="258" font-size="9" font-weight="bold" text-anchor="middle" fill="#e65100">
    Descobertas:
  </text>
  <text x="365" y="275" font-size="8" text-anchor="middle" fill="#bf360c">Limite devolvição,</text>
  <text x="365" y="288" font-size="8" text-anchor="middle" fill="#bf360c">nota fiscal, múltiplos</text>
  <text x="365" y="301" font-size="8" text-anchor="middle" fill="#bf360c">armazéns, impostos...</text>

  <text x="365" y="330" font-size="9" fill="#e65100" font-style="italic" font-weight="bold">
    ⏱️ Semanas 2-4
  </text>

  <!-- FASE 3: Maturidade -->
  <rect x="495" y="20" width="210" height="460" fill="#e8f5e9" stroke="#4caf50" stroke-width="2"
    rx="8" />
  <text x="600" y="50" font-size="13" font-weight="bold" text-anchor="middle" fill="#1b5e20">FASE 3</text>
  <text x="600" y="68" font-size="12" font-weight="bold" text-anchor="middle" fill="#1b5e20">
    ✅ Maturidade
  </text>

  <rect x="510" y="90" width="180" height="35" fill="#c8e6c9" stroke="#558b2f" stroke-width="1"
    rx="5" />
  <text x="600" y="112" font-size="10" text-anchor="middle" fill="#1b5e20">Domínio documentado</text>

  <text x="515" y="145" font-size="9" fill="#1b5e20">Expert:</text>
  <text x="515" y="160" font-size="9" fill="#1b5e20">"Um Pedido tem 5</text>
  <text x="515" y="175" font-size="9" fill="#1b5e20">estados, com regras"</text>

  <text x="515" y="198" font-size="9" fill="#1b5e20">Dev:</text>
  <text x="515" y="213" font-size="9" fill="#1b5e20">"Vou modelar isso</text>
  <text x="515" y="228" font-size="9" fill="#1b5e20">com agregados"</text>

  <rect x="510" y="250" width="180" height="75" fill="#c8e6c9" stroke="#558b2f" stroke-width="1"
    rx="5" />
  <text x="600" y="268" font-size="9" font-weight="bold" text-anchor="middle" fill="#1b5e20">
    Resultado:</text>
  <text x="600" y="284" font-size="8" text-anchor="middle" fill="#33691e">Sistema estável, regras</text>
  <text x="600" y="298" font-size="8" text-anchor="middle" fill="#33691e">claras, fácil manter.</text>
  <text x="600" y="312" font-size="8" text-anchor="middle" fill="#33691e">Especialista entende!</text>

  <text x="600" y="330" font-size="9" fill="#1b5e20" font-style="italic" font-weight="bold">
    ⏱️ Semanas 4+
  </text>

  <!-- FASE 4: Contínua -->
  <rect x="730" y="20" width="240" height="460" fill="#f3e5f5" stroke="#9c27b0" stroke-width="2"
    rx="8" />
  <text x="850" y="50" font-size="13" font-weight="bold" text-anchor="middle" fill="#6a1b9a">FASE 4</text>
  <text x="850" y="68" font-size="12" font-weight="bold" text-anchor="middle" fill="#6a1b9a">
    ♻️ EVOLUÇÃO CONTÍNUA
  </text>

  <rect x="750" y="95" width="200" height="30" fill="#e1bee7" stroke="#7b1fa2" stroke-width="1"
    rx="5" />
  <text x="850" y="115" font-size="10" text-anchor="middle" fill="#6a1b9a">Aprender do negócio</text>

  <rect x="750" y="140" width="200" height="30" fill="#e1bee7" stroke="#7b1fa2" stroke-width="1"
    rx="5" />
  <text x="850" y="160" font-size="10" text-anchor="middle" fill="#6a1b9a">Refatorar código</text>

  <rect x="750" y="185" width="200" height="30" fill="#e1bee7" stroke="#7b1fa2" stroke-width="1"
    rx="5" />
  <text x="850" y="205" font-size="10" text-anchor="middle" fill="#6a1b9a">Validar com especialista</text>

  <rect x="750" y="230" width="200" height="30" fill="#e1bee7" stroke="#7b1fa2" stroke-width="1"
    rx="5" />
  <text x="850" y="250" font-size="10" text-anchor="middle" fill="#6a1b9a">Testar a fundo</text>

  <!-- Loop arrow -->
  <path
    d="M 950 265 Q 980 350 950 435"
    stroke="#7b1fa2"
    stroke-width="2"
    fill="none"
    marker-end="url(#arrowhead)"
  />
  <path
    d="M 750 265 Q 720 350 750 435"
    stroke="#7b1fa2"
    stroke-width="2"
    fill="none"
    marker-end="url(#arrowhead)"
  />

  <text x="850" y="370" font-size="11" fill="#6a1b9a" text-anchor="middle" font-weight="bold">Ciclo</text>
  <text x="850" y="385" font-size="11" fill="#6a1b9a" text-anchor="middle" font-weight="bold">
    Contínuo</text>

  <rect x="750" y="410" width="200" height="50" fill="#d1c4e9" stroke="#7b1fa2" stroke-width="2"
    rx="5" />
  <text x="850" y="430" font-size="11" fill="#6a1b9a" text-anchor="middle" font-weight="bold">♾️
    Sempre</text>
  <text x="850" y="450" font-size="10" fill="#6a1b9a" text-anchor="middle">Evoluindo</text>

  <!-- Setas de progresso entre fases -->
  <path d="M 235 250 L 260 250" stroke="#999" stroke-width="2" marker-end="url(#arrowhead)" />
  <path d="M 470 250 L 495 250" stroke="#999" stroke-width="2" marker-end="url(#arrowhead)" />
  <path d="M 705 250 L 730 250" stroke="#999" stroke-width="2" marker-end="url(#arrowhead)" />

  <!-- Conclusão -->
  <text
    x="500"
    y="510"
    font-size="11"
    fill="#666"
    font-style="italic"
    text-anchor="middle"
    font-weight="bold"
  >
    💡 O domínio EVOLUI. Investir em discovery no início economiza refatoração depois!
  </text>
</svg>